<svg width="1160" height="448" viewBox="0 0 1160 448" fill="none" xmlns="http://www.w3.org/2000/svg">
<rect x="36" width="1088" height="448" rx="20" fill="#001424"/>
<rect x="36" width="1088" height="448" rx="20" fill="url(#paint0_linear_1_437)"/>
<g opacity="0.5" clip-path="url(#clip0_1_437)">
<path d="M15 217.012C15 216.112 13.923 215.662 13.294 216.298L10.198 219.428C8.066 221.582 7 222.66 7 224C7 225.34 8.066 226.417 10.198 228.573L13.294 231.702C13.924 232.339 15 231.888 15 230.987C15 230.72 14.895 230.463 14.707 230.273L11.612 227.143C10.506 226.025 9.822 225.328 9.389 224.754C8.999 224.237 8.999 224.057 8.999 224.003V223.997C8.999 223.944 8.999 223.763 9.389 223.246C9.821 222.672 10.506 221.974 11.612 220.856L14.707 217.727C14.895 217.537 15 217.28 15 217.012Z" fill="white"/>
</g>
<g opacity="0.5" clip-path="url(#clip1_1_437)">
<path d="M1145 217.012C1145 216.112 1146.08 215.662 1146.71 216.298L1149.8 219.428C1151.93 221.582 1153 222.66 1153 224C1153 225.34 1151.93 226.417 1149.8 228.573L1146.71 231.702C1146.08 232.339 1145 231.888 1145 230.987C1145 230.72 1145.11 230.463 1145.29 230.273L1148.39 227.143C1149.49 226.025 1150.18 225.328 1150.61 224.754C1151 224.237 1151 224.057 1151 224.003V223.997C1151 223.944 1151 223.763 1150.61 223.246C1150.18 222.672 1149.49 221.974 1148.39 220.856L1145.29 217.727C1145.1 217.537 1145 217.28 1145 217.012Z" fill="white"/>
</g>
<defs>
<linearGradient id="paint0_linear_1_437" x1="1124" y1="-2.16227e-05" x2="916.561" y2="706.533" gradientUnits="userSpaceOnUse">
<stop stop-color="#415165" stop-opacity="0.7"/>
<stop offset="0.313" stop-color="#6E7782" stop-opacity="0.7"/>
<stop offset="0.8905" stop-color="#415165" stop-opacity="0.7"/>
</linearGradient>
<clipPath id="clip0_1_437">
<rect width="24" height="24" fill="white" transform="translate(0 212)"/>
</clipPath>
<clipPath id="clip1_1_437">
<rect width="24" height="24" fill="white" transform="translate(1136 212)"/>
</clipPath>
</defs>
</svg>
