<svg width="101" height="38" viewBox="0 0 101 38" fill='#849ab2' xmlns="http://www.w3.org/2000/svg">
<g clip-path="url(#clip0_1_3501)">
<path d="M90.3907 31.741H88.601V29.953H94.0983V31.741H92.3087V36.5791H90.3907V31.741Z" fill="white"/>
<path d="M94.2251 33.2661C94.2251 35.2478 95.6051 36.5791 98.188 36.5791H101V34.7895H98.188C96.9933 34.7895 96.2065 34.3463 96.2065 33.2661C96.2065 32.1859 96.9933 31.7427 98.188 31.7427H101V29.953H98.188C95.6035 29.953 94.2251 31.2843 94.2251 33.2661Z" fill="white"/>
<path d="M82.6585 29.953L83.6809 33.9064L84.7033 29.953H88.0907V36.5774H86.1743V31.1849L84.7797 36.5774H82.5821L81.1874 31.1883V36.5774H79.271V29.953H82.6585Z" fill="white"/>
<path d="M74.7978 29.5553C74.263 29.5553 73.6324 30.0862 73.109 30.981C72.5661 31.9061 72.241 33.0538 72.241 34.048C72.241 35.5057 73.031 36.9752 74.7978 36.9752C76.5631 36.9752 77.3546 35.5057 77.3546 34.048C77.3546 33.0521 77.0312 31.9061 76.4883 30.981C75.9633 30.0862 75.331 29.5553 74.7978 29.5553Z" fill="white"/>
<path d="M35.9317 31.6011C34.542 31.6011 33.8495 32.4606 33.8495 34.1222C33.8495 35.8124 34.542 36.6567 35.9301 36.6584C37.0679 36.6584 37.7392 36.1966 37.8969 35.0743H36.9932C36.8778 35.7281 36.5413 35.9405 35.9317 35.9405C35.1093 35.9405 34.7533 35.3995 34.7533 34.3985V33.8509C34.7533 32.8364 35.1369 32.3173 35.9317 32.3173C36.5754 32.3173 36.8973 32.587 36.9867 33.1987H37.8904C37.7262 32.0696 37.0891 31.6011 35.9317 31.6011Z" fill="white"/>
<path d="M40.4131 33.7312C39.7824 33.7312 39.537 33.9654 39.537 34.5333V36.5791H38.7015V32.9998H39.5028V33.6318C39.6605 33.2273 39.9758 32.9998 40.4618 32.9998H40.8389V33.7312H40.4131Z" fill="white"/>
<path fill-rule="evenodd" clip-rule="evenodd" d="M44.5369 35.4214H43.7014C43.6461 35.8832 43.3308 36.018 42.9423 36.0163C42.4141 36.0163 42.1263 35.6692 42.1263 35.044V34.7743H44.5239V34.589C44.5239 33.4464 43.968 32.9206 42.9407 32.9206C41.811 32.9206 41.2762 33.588 41.2762 34.7962C41.2762 35.9893 41.7964 36.6567 42.9407 36.6567C43.8444 36.6567 44.428 36.2809 44.5369 35.4214ZM43.6526 34.2216H42.1394C42.1946 33.7733 42.4401 33.561 42.9326 33.561C43.3991 33.561 43.612 33.7818 43.6526 34.2216Z" fill="white"/>
<path fill-rule="evenodd" clip-rule="evenodd" d="M46.5313 34.4693L47.4285 34.3834V34.2199C47.4285 33.7295 47.2026 33.5593 46.7979 33.5593C46.4013 33.5593 46.1672 33.7228 46.1266 34.107H45.2764C45.3236 33.3403 45.8388 32.9206 46.7897 32.9206C47.7357 32.9206 48.2689 33.3183 48.2689 34.2351V36.5792H47.4675V36.1242C47.2205 36.4797 46.845 36.6567 46.3379 36.6567C45.543 36.6567 45.1529 36.2084 45.1529 35.6051C45.1545 34.8738 45.5918 34.562 46.5313 34.4693ZM47.4285 35.2293V34.9176L46.6061 35.0035C46.2013 35.0456 46.003 35.1602 46.003 35.4787V35.627C46.003 35.9034 46.216 36.0466 46.5914 36.0466C47.0856 36.0466 47.4285 35.7686 47.4285 35.2293Z" fill="white"/>
<path d="M49.2783 32.9998H48.8394V33.6874H49.2783V35.5984C49.2783 36.2876 49.5042 36.5792 50.182 36.5792H50.9622V35.8899H50.4762C50.2096 35.8899 50.1137 35.7838 50.1137 35.4922V33.6891H50.9638V32.9998H50.1137V31.8843H49.2783V32.9998Z" fill="white"/>
<path fill-rule="evenodd" clip-rule="evenodd" d="M53.8751 35.4214H54.7105C54.6016 36.2809 54.0181 36.6567 53.1144 36.6567C51.97 36.6567 51.4499 35.9893 51.4499 34.7962C51.4499 33.588 51.9847 32.9206 53.1144 32.9206C54.1416 32.9206 54.6975 33.4464 54.6975 34.589V34.7743H52.3V35.044C52.3 35.6692 52.5877 36.0163 53.116 36.0163C53.5061 36.018 53.8198 35.8832 53.8751 35.4214ZM52.313 34.2216H53.8263C53.7857 33.7818 53.5727 33.561 53.1079 33.561C52.6154 33.561 52.3683 33.7733 52.313 34.2216Z" fill="white"/>
<path fill-rule="evenodd" clip-rule="evenodd" d="M57.9224 36.0981C57.6964 36.4655 57.3328 36.6567 56.8204 36.6567C55.8126 36.6567 55.3201 35.9607 55.3201 34.7962C55.3201 33.6166 55.8142 32.9206 56.8204 32.9206C57.3064 32.9206 57.6558 33.106 57.8883 33.4397V31.3939H58.7238V36.5791H57.9224V36.0981ZM57.8899 34.5131V35.0524C57.8899 35.6405 57.6168 36.0112 57.0398 36.0112C56.4644 36.0112 56.1897 35.6708 56.1897 35.0524V34.5131C56.1897 33.9014 56.4644 33.5677 57.0398 33.5677C57.6152 33.5677 57.8899 33.9014 57.8899 34.5131Z" fill="white"/>
<path fill-rule="evenodd" clip-rule="evenodd" d="M61.4253 31.3939H62.2607V33.4329C62.4867 33.0993 62.8296 32.9223 63.3156 32.9223C64.3364 32.9223 64.8371 33.6183 64.8371 34.7979C64.8371 35.9624 64.3299 36.6584 63.3156 36.6584C62.8085 36.6584 62.446 36.4662 62.2266 36.0972V36.5808H61.4253V31.3939ZM63.961 35.0524V34.5131C63.961 33.9014 63.6863 33.5677 63.119 33.5677C62.5501 33.5677 62.277 33.8879 62.2624 34.4693V35.0524C62.2624 35.6422 62.5436 36.0112 63.1125 36.0112C63.6863 36.0112 63.961 35.6405 63.961 35.0524Z" fill="white"/>
<path d="M66.5242 36.9415C66.4202 37.2465 66.2983 37.3105 65.9277 37.3105H65.6286V37.9997H66.1146C66.7713 37.9997 67.0054 37.8211 67.2719 37.0476L68.6893 32.9998H67.8945L67.0249 35.5074L66.1276 32.9998H65.2434L66.5925 36.7291L66.5242 36.9415Z" fill="white"/>
<path d="M33.075 0.924387V23.8202C33.075 24.3299 32.6717 24.7446 32.176 24.7446H26.3701C25.8744 24.7446 25.4711 24.3299 25.4711 23.8202V0.924387C25.4711 0.414678 25.8744 0 26.3701 0H32.176C32.6717 0 33.075 0.414678 33.075 0.924387ZM23.9965 23.7079L17.2328 11.8097L23.6436 1.08205C23.9524 0.624177 23.6352 0 23.0933 0L16.046 0.0129587C15.8233 0.0129587 15.6133 0.127427 15.4893 0.317488L10.509 9.01925H7.60184V0.924387C7.60184 0.414678 7.19853 0 6.70281 0H0.899029C0.401202 0 0 0.414678 0 0.924387V23.8202C0 24.3299 0.403303 24.7446 0.899029 24.7446H6.70491C7.20063 24.7446 7.60394 24.3299 7.60394 23.8202V15.7599H11.1412L16.0922 24.4185C16.214 24.6258 16.4325 24.7554 16.6677 24.7554H23.4252C23.9503 24.7554 24.2717 24.1658 23.9965 23.7079ZM100.101 24.7446C100.597 24.7446 101 24.3299 101 23.8202V0.924387C101 0.414678 100.597 0 100.101 0H94.5051C94.0094 0 93.6061 0.414678 93.6061 0.924387L93.6418 12.6369L83.4836 0.0129587H77.0308C76.5351 0.0129587 76.1318 0.427637 76.1318 0.937345V23.8353C76.1318 24.3451 76.533 24.7576 77.0287 24.7576H82.6119C83.1076 24.7576 83.5089 24.3451 83.5089 23.8353V12.1077L93.5641 24.7468L100.101 24.7446ZM73.8044 1.02158V23.7252C73.8044 24.2889 73.3591 24.7468 72.8108 24.7468H36.3939C35.8456 24.7468 35.4003 24.2889 35.4003 23.7252V1.02158C35.4003 0.457874 35.8456 0 36.3939 0H72.8129C73.3591 0 73.8044 0.457874 73.8044 1.02158ZM66.2467 6.57869C66.2467 6.37352 66.0639 6.22017 65.8665 6.26121C61.9322 7.06896 48.0014 7.19207 43.3298 6.25473C43.1366 6.21585 42.958 6.3692 42.958 6.57437V17.8074C42.958 18.0061 43.1282 18.1573 43.3214 18.1292C47.1948 17.5396 61.9196 17.6368 65.8938 18.1422C66.0828 18.1659 66.2467 18.0147 66.2467 17.8204V6.57869Z" fill="white"/>
</g>
<defs>
<clipPath id="clip0_1_3501">
<rect width="101" height="38" fill="white"/>
</clipPath>
</defs>
</svg>
